<svg xmlns="http://www.w3.org/2000/svg" width="49.745" height="74.617" viewBox="0 0 49.745 74.617">
  <path id="chess-pawn" d="M16.338,61.847h-3.9a2.487,2.487,0,0,0-2.487,2.487v4.974A2.487,2.487,0,0,0,12.436,71.8h2.487v.853c0,6.84-.644,13.462-3.731,19.044H38.552c-3.092-5.582-3.731-12.2-3.731-19.044V71.8h2.487A2.487,2.487,0,0,0,39.8,69.308V64.334a2.487,2.487,0,0,0-2.487-2.487h-3.9a16.167,16.167,0,1,0-17.069,0ZM47.257,96.668H2.487A2.487,2.487,0,0,0,0,99.155v4.974a2.487,2.487,0,0,0,2.487,2.487h44.77a2.487,2.487,0,0,0,2.487-2.487V99.155A2.487,2.487,0,0,0,47.257,96.668Z" transform="translate(0 -32)" fill="#fff"/>
</svg>
